<!-- Generator: Adobe Illustrator 24.1.2, SVG Export Plug-In  -->
<svg version="1.1" xmlns="http://www.w3.org/2000/svg" xmlns:xlink="http://www.w3.org/1999/xlink" x="0px" y="0px" width="22px"
	 height="22px" viewBox="0 0 22 22" style="overflow:visible;enable-background:new 0 0 22 22;" xml:space="preserve">
<style type="text/css">
	.st0{fill:#E8E8E8;}
</style>
<defs>
</defs>
<path class="st0" d="M11,22C4.93,22,0,17.07,0,11S4.93,0,11,0s11,4.93,11,11S17.07,22,11,22z M11,2c-4.96,0-9,4.04-9,9s4.04,9,9,9
	s9-4.04,9-9S15.96,2,11,2z"/>
<path class="st0" d="M11,12c-0.55,0-1-0.45-1-1V7c0-0.55,0.45-1,1-1s1,0.45,1,1v4C12,11.55,11.55,12,11,12z"/>
<circle class="st0" cx="11" cy="15" r="1.25"/>
</svg>
