<svg version="1.1" xmlns="http://www.w3.org/2000/svg" x="0px" y="0px" width="36px" height="36px" viewBox="0 0 40 40" style="overflow:visible;enable-background:new 0 0 40 40;" xml:space="preserve"><style type="text/css">.st0{fill:none;}</style><g><path d="M21.5,27.75c0,0.83-0.67,1.5-1.5,1.5s-1.5-0.67-1.5-1.5h-2c0,1.93,1.57,3.5,3.5,3.5s3.5-1.57,3.5-3.5H21.5z"/><path d="M27.55,26.45h-15.1c-0.88,0-1.64-0.36-2.07-0.98c-0.4-0.57-0.48-1.32-0.22-2.04l1.23-3.38l0.01-3.85c0.2-4.18,3.98-7.46,8.6-7.46c4.7,0,8.48,3.34,8.61,7.6l0,3.72l1.24,3.38c0.26,0.72,0.18,1.45-0.21,2.03C29.2,26.09,28.44,26.45,27.55,26.45z M20,10.75c-3.56,0-6.46,2.45-6.61,5.57l-0.01,0.12l0,3.97l-1.35,3.71c-0.04,0.11-0.04,0.18-0.02,0.21c0.04,0.05,0.18,0.12,0.44,0.12h15.1c0.29,0,0.42-0.09,0.44-0.12c0.01-0.02,0.02-0.08-0.02-0.19l-1.36-3.71l0-4.04C26.51,13.29,23.55,10.75,20,10.75z"/><rect class="st0" width="40" height="40"/></g></svg>