<!-- Generator: Adobe Illustrator 24.1.2, SVG Export Plug-In  -->
<svg version="1.1" xmlns="http://www.w3.org/2000/svg" xmlns:xlink="http://www.w3.org/1999/xlink" x="0px" y="0px" width="30.61px"
	 height="9.68px" viewBox="0 0 30.61 9.68" style="overflow:visible;enable-background:new 0 0 30.61 9.68;" xml:space="preserve">
<style type="text/css">
	.st0{fill:#E8E8E8;}
	.st1{fill:none;stroke:#F14D45;stroke-width:0.4;stroke-linecap:round;stroke-miterlimit:10;}
</style>
<defs>
</defs>
<g>
	<g>
		<path class="st0" d="M7.36,7.67v1.84H4.97V7.67H0V6.03l4.28-5.85h2.56L2.92,5.68h2.13V4.04h2.31v1.64H8.8v1.99H7.36z"/>
		<path class="st0" d="M12.79,9.05c-0.75-0.42-1.33-1-1.75-1.73c-0.42-0.74-0.63-1.56-0.63-2.48c0-0.92,0.21-1.74,0.63-2.48
			c0.42-0.74,1.01-1.32,1.75-1.73C13.54,0.21,14.38,0,15.31,0c0.92,0,1.76,0.21,2.51,0.63c0.75,0.42,1.33,0.99,1.75,1.73
			s0.63,1.56,0.63,2.49c0,0.92-0.21,1.75-0.63,2.49s-1.01,1.31-1.75,1.73c-0.75,0.42-1.58,0.63-2.51,0.63
			C14.38,9.68,13.54,9.47,12.79,9.05z M16.61,7.25C17,7.02,17.3,6.7,17.52,6.28s0.33-0.9,0.33-1.44c0-0.54-0.11-1.02-0.33-1.45
			S17,2.64,16.61,2.41c-0.39-0.23-0.82-0.35-1.3-0.35c-0.49,0-0.93,0.12-1.31,0.35c-0.39,0.23-0.69,0.56-0.91,0.98
			c-0.22,0.42-0.33,0.9-0.33,1.45c0,0.54,0.11,1.02,0.33,1.44C13.31,6.7,13.61,7.02,14,7.25c0.39,0.23,0.82,0.35,1.31,0.35
			C15.79,7.6,16.22,7.48,16.61,7.25z"/>
		<path class="st0" d="M29.17,7.67v1.84h-2.39V7.67h-4.97V6.03l4.28-5.85h2.56l-3.92,5.51h2.13V4.04h2.31v1.64h1.44v1.99H29.17z"/>
	</g>
	<g>
		<g>
			<line class="st1" x1="13.9" y1="3.74" x2="14.7" y2="4.54"/>
			<line class="st1" x1="13.9" y1="4.54" x2="14.7" y2="3.74"/>
			<line class="st1" x1="15.9" y1="3.74" x2="16.7" y2="4.54"/>
			<line class="st1" x1="15.9" y1="4.54" x2="16.7" y2="3.74"/>
		</g>
		<path class="st1" d="M16.3,5.89c-0.29-0.31-0.63-0.5-1-0.5s-0.71,0.19-1,0.5"/>
	</g>
</g>
</svg>
