<!-- Generator: Adobe Illustrator 24.1.2, SVG Export Plug-In  -->
<svg version="1.1" xmlns="http://www.w3.org/2000/svg" xmlns:xlink="http://www.w3.org/1999/xlink" x="0px" y="0px" width="30.51px"
	 height="9.68px" viewBox="0 0 30.51 9.68" style="overflow:visible;enable-background:new 0 0 30.51 9.68;" xml:space="preserve">
<style type="text/css">
	.st0{fill:#E8E8E8;}
	.st1{fill:none;stroke:#F14D45;stroke-width:0.4;stroke-linecap:round;stroke-miterlimit:10;}
</style>
<defs>
</defs>
<g>
	<g>
		<path class="st0" d="M6.67,4.4C7.3,4.93,7.61,5.64,7.61,6.52c0,0.58-0.15,1.11-0.44,1.59C6.88,8.59,6.44,8.97,5.84,9.25
			c-0.6,0.28-1.33,0.43-2.21,0.43c-0.66,0-1.31-0.08-1.95-0.25S0.47,9.04,0,8.73l0.96-1.88C1.32,7.1,1.73,7.3,2.19,7.43
			S3.1,7.64,3.56,7.64c0.49,0,0.88-0.09,1.16-0.27C5,7.18,5.15,6.93,5.15,6.6c0-0.33-0.14-0.58-0.43-0.76
			C4.42,5.66,3.92,5.57,3.2,5.57H0.71l0.48-5.4h5.84v1.95h-3.8L3.12,3.6h0.65C5.08,3.6,6.05,3.87,6.67,4.4z"/>
		<path class="st0" d="M12.11,9.05c-0.75-0.42-1.33-1-1.75-1.73C9.94,6.58,9.73,5.76,9.73,4.84c0-0.92,0.21-1.74,0.63-2.48
			c0.42-0.74,1.01-1.32,1.75-1.73C12.86,0.21,13.7,0,14.63,0c0.92,0,1.76,0.21,2.51,0.63c0.75,0.42,1.33,0.99,1.75,1.73
			s0.63,1.56,0.63,2.49c0,0.92-0.21,1.75-0.63,2.49s-1.01,1.31-1.75,1.73c-0.75,0.42-1.58,0.63-2.51,0.63
			C13.7,9.68,12.86,9.47,12.11,9.05z M15.93,7.25c0.39-0.23,0.69-0.56,0.91-0.97s0.33-0.9,0.33-1.44c0-0.54-0.11-1.02-0.33-1.45
			s-0.52-0.75-0.91-0.98c-0.39-0.23-0.82-0.35-1.3-0.35c-0.49,0-0.93,0.12-1.31,0.35c-0.39,0.23-0.69,0.56-0.91,0.98
			c-0.22,0.42-0.33,0.9-0.33,1.45c0,0.54,0.11,1.02,0.33,1.44c0.22,0.42,0.52,0.74,0.91,0.97c0.39,0.23,0.82,0.35,1.31,0.35
			C15.11,7.6,15.55,7.48,15.93,7.25z"/>
		<path class="st0" d="M23.1,9.05c-0.75-0.42-1.33-1-1.75-1.73c-0.42-0.74-0.63-1.56-0.63-2.48c0-0.92,0.21-1.74,0.63-2.48
			c0.42-0.74,1.01-1.32,1.75-1.73C23.85,0.21,24.69,0,25.62,0c0.92,0,1.76,0.21,2.51,0.63c0.75,0.42,1.33,0.99,1.75,1.73
			s0.63,1.56,0.63,2.49c0,0.92-0.21,1.75-0.63,2.49s-1.01,1.31-1.75,1.73c-0.75,0.42-1.58,0.63-2.51,0.63
			C24.69,9.68,23.85,9.47,23.1,9.05z M26.92,7.25c0.39-0.23,0.69-0.56,0.91-0.97s0.33-0.9,0.33-1.44c0-0.54-0.11-1.02-0.33-1.45
			s-0.52-0.75-0.91-0.98c-0.39-0.23-0.82-0.35-1.3-0.35c-0.49,0-0.93,0.12-1.31,0.35c-0.39,0.23-0.69,0.56-0.91,0.98
			c-0.22,0.42-0.33,0.9-0.33,1.45c0,0.54,0.11,1.02,0.33,1.44c0.22,0.42,0.52,0.74,0.91,0.97c0.39,0.23,0.82,0.35,1.31,0.35
			C26.1,7.6,26.53,7.48,26.92,7.25z"/>
	</g>
	<g>
		<g>
			<line class="st1" x1="13.29" y1="3.74" x2="14.09" y2="4.54"/>
			<line class="st1" x1="13.29" y1="4.54" x2="14.09" y2="3.74"/>
			<line class="st1" x1="15.29" y1="3.74" x2="16.09" y2="4.54"/>
			<line class="st1" x1="15.29" y1="4.54" x2="16.09" y2="3.74"/>
		</g>
		<path class="st1" d="M15.69,5.89c-0.29-0.31-0.63-0.5-1-0.5s-0.71,0.19-1,0.5"/>
	</g>
</g>
</svg>
