<svg version="1.1" xmlns="http://www.w3.org/2000/svg" x="0px" y="0px" width="36px" height="36px" viewBox="0 0 40 40" style="overflow:visible;enable-background:new 0 0 40 40;" xml:space="preserve"><style type="text/css">.st0{fill:none;}</style><g><path d="M27.49,22.43h-0.23c-0.31-1.79-1.87-3.16-3.74-3.16H21v-1.69h0.16c1.65,0,3-1.35,3-3v-2.32c0-1.65-1.35-3-3-3h-2.32c-1.65,0-3,1.35-3,3v2.32c0,1.65,1.35,3,3,3H19v1.69h-2.51c-1.88,0-3.44,1.37-3.74,3.16h-0.23c-1.65,0-3,1.35-3,3v2.32c0,1.65,1.35,3,3,3h2.32c1.65,0,3-1.35,3-3v-2.32c0-1.65-1.35-3-3-3H14.8c0.26-0.68,0.92-1.16,1.69-1.16h7.03c0.77,0,1.42,0.48,1.69,1.16h-0.04c-1.65,0-3,1.35-3,3v2.32c0,1.65,1.35,3,3,3h2.32c1.65,0,3-1.35,3-3v-2.32C30.49,23.77,29.14,22.43,27.49,22.43z M17.84,14.57v-2.32c0-0.55,0.45-1,1-1h2.32c0.55,0,1,0.45,1,1v2.32c0,0.55-0.45,1-1,1h-2.32C18.29,15.57,17.84,15.13,17.84,14.57z M15.84,25.43v2.32c0,0.55-0.45,1-1,1h-2.32c-0.55,0-1-0.45-1-1v-2.32c0-0.55,0.45-1,1-1h2.32C15.39,24.43,15.84,24.87,15.84,25.43z M28.49,27.75c0,0.55-0.45,1-1,1h-2.32c-0.55,0-1-0.45-1-1v-2.32c0-0.55,0.45-1,1-1h2.32c0.55,0,1,0.45,1,1V27.75z"/><rect class="st0" width="40" height="40"/></g></svg>